<svg version="1.1" id="Layer_1" xmlns="http://www.w3.org/2000/svg" xmlns:xlink="http://www.w3.org/1999/xlink" x="0px" y="0px"
	 viewBox="0 0 512.533 512.533" style="enable-background:new 0 0 512.533 512.533;" xml:space="preserve">
<rect x="15.2" y="225.6" style="fill:#CDD6E0;" width="482.133" height="286.933"/>
<rect x="0.267" y="176.533" style="fill:#ACB3BA;" width="512" height="49.067"/>
<rect x="15.2" y="225.6" style="opacity:0.1;fill:#231F20;enable-background:new    ;" width="482.133" height="16"/>
<polygon style="fill:#F2F2F2;" points="380,512.533 132.533,512.533 132.533,116.8 256.267,21.867 380,116.8 "/>
<polygon style="opacity:0.1;fill:#231F20;enable-background:new    ;" points="132.533,116.8 132.533,166.933 256.267,68.8 380,168 
	380,116.8 256.267,21.867 "/>
<g>
	<path style="fill:#40596B;" d="M392.8,152c-4.267,0-9.6-1.067-12.8-4.267l-123.733-99.2l-123.733,98.133
		c-9.6,7.467-22.4,5.333-29.867-4.267c-7.467-9.6-5.333-22.4,4.267-29.867L243.467,4.8c7.467-6.4,18.133-6.4,25.6,0L405.6,113.6
		c9.6,7.467,10.667,20.267,4.267,29.867C405.6,148.8,399.2,152,392.8,152z"/>
	<rect x="196.533" y="400.533" style="fill:#40596B;" width="59.733" height="112"/>
</g>
<rect x="256.267" y="400.533" style="fill:#334A5E;" width="59.733" height="112"/>
<g>
	<rect x="167.733" y="175.467" style="fill:#54C0EB;" width="40.533" height="40.533"/>
	<rect x="236" y="175.467" style="fill:#54C0EB;" width="40.533" height="40.533"/>
	<rect x="167.733" y="246.933" style="fill:#54C0EB;" width="40.533" height="40.533"/>
	<rect x="236" y="246.933" style="fill:#54C0EB;" width="40.533" height="40.533"/>
	<rect x="167.733" y="318.4" style="fill:#54C0EB;" width="40.533" height="40.533"/>
	<rect x="236" y="318.4" style="fill:#54C0EB;" width="40.533" height="40.533"/>
	<rect x="305.333" y="175.467" style="fill:#54C0EB;" width="40.533" height="40.533"/>
	<rect x="305.333" y="246.933" style="fill:#54C0EB;" width="40.533" height="40.533"/>
	<rect x="305.333" y="318.4" style="fill:#54C0EB;" width="40.533" height="40.533"/>
</g>
<g>
	<rect x="418.4" y="277.867" style="fill:#ACB3BA;" width="40.533" height="40.533"/>
	<rect x="418.4" y="349.333" style="fill:#ACB3BA;" width="40.533" height="40.533"/>
	<rect x="418.4" y="419.733" style="fill:#ACB3BA;" width="40.533" height="40.533"/>
	<rect x="53.6" y="277.867" style="fill:#ACB3BA;" width="40.533" height="40.533"/>
	<rect x="53.6" y="349.333" style="fill:#ACB3BA;" width="40.533" height="40.533"/>
	<rect x="53.6" y="419.733" style="fill:#ACB3BA;" width="40.533" height="40.533"/>
</g>
<g>
</g>
<g>
</g>
<g>
</g>
<g>
</g>
<g>
</g>
<g>
</g>
<g>
</g>
<g>
</g>
<g>
</g>
<g>
</g>
<g>
</g>
<g>
</g>
<g>
</g>
<g>
</g>
<g>
</g>
</svg>
