
<svg id="Capa_1" enable-background="new 0 0 512 512" height="42" viewBox="0 0 512 512" width="42" xmlns="http://www.w3.org/2000/svg"><g><path d="m512 91h-301l-15 30-15-30h-181v180l30 15-30 15v120h181l15-30 15 30h301v-120l-30-15 30-15z" fill="#ff8066"/><path d="m512 421v-120l-30-15 30-15v-180h-301l-15 30v270l15 30z" fill="#e6455d"/><path d="m211 271v-180h-15-15v180h-181v30h181v120h15 15v-120h301v-30z" fill="#fc6"/><path d="m211 301h301v-30h-301v-180h-15v330h15z" fill="#ffa64d"/><path d="m331 211c0-33.091-26.909-60-60-60-25.181 0-47.871 15.908-56.44 39.595l-18.558 51.304-.002-.005-18.56-51.313c-8.569-23.673-31.259-39.581-56.44-39.581-33.091 0-60 26.909-60 60 0 25.181 15.908 47.871 39.595 56.44l62.362 22.559-65.277 43.521 16.641 24.961 81.679-54.449 81.68 54.448 16.641-24.961-65.275-43.521 62.375-22.559c23.671-8.568 39.579-31.258 39.579-56.439zm-220.195 28.228c-11.851-4.292-19.805-15.63-19.805-28.228 0-16.538 13.462-30 30-30 12.598 0 23.936 7.954 28.228 19.79l21.782 60.22zm170.405 0-60.22 21.782 21.782-60.205c4.292-11.851 15.63-19.805 28.228-19.805 16.538 0 30 13.462 30 30 0 12.598-7.954 23.936-19.79 28.228z" fill="#ffea80"/><path d="m294.32 333.52-65.275-43.521 62.375-22.559c23.672-8.569 39.58-31.259 39.58-56.44 0-33.091-26.909-60-60-60-25.181 0-47.871 15.908-56.44 39.595l-18.558 51.304-.002-.005v62.139l81.68 54.448zm-51.548-132.715c4.292-11.851 15.63-19.805 28.228-19.805 16.538 0 30 13.462 30 30 0 12.598-7.954 23.936-19.79 28.228l-60.22 21.782z" fill="#fc6"/></g></svg>