
<svg height="25" viewBox="0 0 512 512" width="25" xmlns="http://www.w3.org/2000/svg"><path d="m295.957031 272.972656 35.246094-98.601562c30.679687 14.359375 51.945313 45.507812 51.945313 81.625 0 36.117187-21.265626 67.265625-51.945313 81.625zm0 0" fill="#65687f"/><path d="m383.144531 255.996094c0 36.117187-21.261719 67.265625-51.945312 81.625l-19.574219-30.707032 19.574219-31.335937c30.683593-3.445313 51.945312-10.914063 51.945312-19.582031zm0 0" fill="#3a3d51"/><path d="m207.179688 165.863281 10.449218 102.4375-10.449218 77.84375h-42.757813c-19.648437 0-35.570313-15.921875-35.570313-35.570312v-109.15625c0-19.632813 15.921876-35.554688 35.570313-35.554688zm0 0" fill="#3a3d51"/><path d="m313.355469 107.796875-106.171875 58.0625v180.285156l106.171875 58.058594c8.039062 4.398437 17.851562-1.421875 17.851562-10.582031v-275.242188c0-9.160156-9.8125-14.976562-17.851562-10.582031zm0 0" fill="#f2b375"/><path d="m331.207031 306.914062-124.023437-20.824218v60.054687l106.171875 58.058594c8.039062 4.398437 17.851562-1.421875 17.851562-10.582031zm0 0" fill="#e09544"/><path d="m207.179688 165.863281v120.226563h-42.757813c-19.648437 0-35.570313-15.921875-35.570313-35.570313v-49.101562c0-19.632813 15.921876-35.554688 35.570313-35.554688zm0 0" fill="#65687f"/><path d="m256 0c-141.386719 0-256 114.613281-256 256s114.613281 256 256 256 256-114.613281 256-256-114.613281-256-256-256zm-209.953125 256c0-71.15625 35.40625-134.03125 89.550781-172.003906l200.417969 366.152344c-24.664063 10.175781-51.679687 15.800781-80.015625 15.800781-115.953125.003906-209.953125-93.996094-209.953125-209.949219zm330.347656 172.007812-200.414062-366.15625c24.660156-10.175781 51.683593-15.804687 80.019531-15.804687 115.953125 0 209.941406 94 209.941406 209.953125 0 71.15625-35.402344 134.035156-89.546875 172.007812zm0 0" fill="#ff5a73"/></svg>