
<svg height="50" viewBox="-32 0 480 480.00012" width="50" xmlns="http://www.w3.org/2000/svg"><path d="m264 80 35.910156-46.175781c3.753906-4.824219 4.429688-11.363281 1.746094-16.851563-2.683594-5.488281-8.257812-8.96875-14.367188-8.972656h-23.90625c-4.136718 0-8.113281 1.601562-11.09375 4.472656l-14.632812 14.085938c-3.140625 3.019531-8.121094 2.96875-11.199219-.109375l-13.761719-13.761719c-3-3.003906-7.074218-4.6875-11.320312-4.6875h-72.664062c-6.109376.003906-11.683594 3.484375-14.367188 8.972656-2.683594 5.488282-2.007812 12.027344 1.746094 16.851563l35.910156 46.175781 8 8h96zm0 0" fill="#8b5e3c"/><path d="m400.585938 415.097656-17.753907-21.296875c-9.589843-11.511719-14.839843-26.019531-14.832031-41v-43.273437c0-44.347656-18.410156-86.707032-50.832031-116.96875l-69.167969-64.558594h-80l-69.167969 64.558594c-32.421875 30.261718-50.832031 72.621094-50.832031 116.96875v43.273437c0 14.96875-5.25 29.464844-14.832031 40.96875l-17.75 21.328125c-4.792969 5.75-7.417969 13-7.417969 20.488282v4.414062c0 17.671875 14.328125 32 32 32h336c17.671875 0 32-14.328125 32-32v-4.414062c0-7.488282-2.625-14.738282-7.414062-20.488282zm0 0" fill="#c49a6c"/><path d="m184 128-49.121094 45.839844-10.078125 9.441406h-.082031l-.71875.71875-9.199219 8.558594c-32.320312 30.328125-50.699219 72.640625-50.800781 116.960937v43.28125c-.003906 7.941407-1.496094 15.808594-4.398438 23.199219-2.421874 6.496094-5.941406 12.53125-10.402343 17.839844l-17.757813 21.28125c-4.742187 5.777344-7.367187 13.003906-7.441406 20.480468v4.398438c0 17.671875 14.328125 32 32 32h-16c-17.671875 0-32-14.328125-32-32v-4.398438c.074219-7.476562 2.699219-14.703124 7.441406-20.480468l17.757813-21.28125c4.460937-5.308594 7.980469-11.34375 10.402343-17.839844 2.902344-7.390625 4.394532-15.257812 4.398438-23.199219v-43.28125c.066406-44.328125 18.449219-86.65625 50.800781-116.960937l9.199219-8.558594.71875-.71875h.082031l10.078125-9.441406 49.121094-45.839844zm0 0" fill="#b08b61"/><path d="m208 216c5.363281.03125 10.714844.511719 16 1.441406v-89.441406h-32v89.441406c5.285156-.929687 10.636719-1.410156 16-1.441406zm0 0" fill="#ffb655"/><path d="m224 128h32c13.253906 0 24-10.746094 24-24s-10.746094-24-24-24h-96c-13.253906 0-24 10.746094-24 24s10.746094 24 24 24zm0 0" fill="#a97c50"/><path d="m304 312c0 53.019531-42.980469 96-96 96s-96-42.980469-96-96 42.980469-96 96-96 96 42.980469 96 96zm0 0" fill="#ff9811"/><path d="m208 352c-18.320312 0-32-8.449219-32-16h-16c0 16.121094 17.03125 29.0625 40 31.535156v16.464844h16v-16.464844c22.96875-2.472656 40-15.414062 40-31.535156 0-17.945312-21.089844-32-48-32-18.320312 0-32-8.449219-32-16s13.679688-16 32-16 32 8.449219 32 16h16c0-16.121094-17.03125-29.0625-40-31.535156v-16.464844h-16v16.464844c-22.96875 2.472656-40 15.414062-40 31.535156 0 17.945312 21.089844 32 48 32 18.320312 0 32 8.449219 32 16s-13.679688 16-32 16zm0 0"/><path d="m406.726562 409.984375-17.75-21.304687c-8.382812-10.078126-12.972656-22.769532-12.976562-35.878907v-43.273437c-.070312-46.550782-19.386719-91-53.367188-122.816406l-56.320312-52.566407c10.148438-3.359375 17.914062-11.609375 20.65625-21.941406s.089844-21.347656-7.058594-29.300781l34.355469-44.167969c5.628906-7.238281 6.644531-17.054687 2.609375-25.292969-4.035156-8.238281-12.414062-13.4531248-21.585938-13.441406h-31.90625c-6.207031-.0078125-12.171874 2.394531-16.640624 6.703125l-14.636719 14.097656-13.761719-13.769531c-4.492188-4.519531-10.605469-7.0507812-16.976562-7.03125h-72.65625c-9.164063 0-17.53125 5.222656-21.558594 13.457031s-3.011719 18.042969 2.617187 25.277344l31.03125 39.859375c-9.480469 7.0625-14.246093 18.804688-12.371093 30.476562 1.875 11.671876 10.078124 21.332032 21.289062 25.074219l-56.320312 52.566407c-33.992188 31.8125-53.320313 76.261718-53.398438 122.816406v43.273437c-.011719 13.097657-4.601562 25.777344-12.976562 35.847657l-17.75 21.328124c-5.984376 7.191407-9.2617192 16.25-9.273438 25.609376v4.414062c.0273438 22.082031 17.917969 39.972656 40 40h336c22.082031-.027344 39.972656-17.917969 40-40v-4.414062c-.007812-9.355469-3.289062-18.410157-9.273438-25.601563zm-284.328124-381.082031c-1.871094-2.410156-2.207032-5.675782-.863282-8.417969 1.339844-2.742187 4.125-4.480469 7.175782-4.484375h72.65625c2.125 0 4.164062.839844 5.664062 2.34375l13.769531 13.777344c6.1875 6.101562 16.101563 6.191406 22.398438.199218l14.632812-14.089843c1.492188-1.433594 3.480469-2.234375 5.550781-2.230469h31.90625c3.050782.003906 5.835938 1.742188 7.175782 4.484375 1.34375 2.742187 1.007812 6.007813-.863282 8.417969l-33.511718 43.097656h-112.179688zm21.601562 75.097656c0-8.835938 7.164062-16 16-16h96c8.835938 0 16 7.164062 16 16s-7.164062 16-16 16h-96c-8.835938 0-16-7.164062-16-16zm64 120c48.601562 0 88 39.398438 88 88s-39.398438 88-88 88-88-39.398438-88-88c.058594-48.578125 39.421875-87.941406 88-88zm8-15.59375c-2.648438-.207031-5.296875-.40625-8-.40625s-5.351562.199219-8 .40625v-72.40625h16zm184 231.59375c0 13.253906-10.746094 24-24 24h-336c-13.253906 0-24-10.746094-24-24v-4.414062c.015625-5.621094 2-11.058594 5.601562-15.371094l17.75-21.300782c10.765626-12.957031 16.65625-29.269531 16.648438-46.113281v-43.273437c.054688-42.121094 17.535156-82.34375 48.289062-111.128906l66.863282-62.398438h12.847656v74.902344c-51.339844 12.179687-85.425781 60.871094-79.296875 113.277344s50.53125 91.917968 103.296875 91.917968 97.167969-39.511718 103.296875-91.917968-27.957031-101.097657-79.296875-113.277344v-74.902344h12.847656l66.863282 62.398438c30.753906 28.785156 48.234374 69.007812 48.289062 111.128906v43.273437c.011719 16.835938 5.914062 33.140625 16.6875 46.078125l17.753906 21.3125c3.601563 4.308594 5.582032 9.742188 5.597656 15.359375zm0 0"/></svg>