
<svg id="Capa_1" enable-background="new 0 0 512 512" height="35" viewBox="0 0 512 512" width="35" xmlns="http://www.w3.org/2000/svg"><g><g><path d="m76 361h120v136h-120z" fill="#ffdf40"/><path d="m316 421h120v76h-120z" fill="#79cc52"/><g><path d="m328.817 223.759-72.817-38.291-72.817 38.291 13.901-81.094-58.901-57.422 81.401-11.836 36.416-73.407 36.416 73.407 81.401 11.836-58.901 57.422z" fill="#ffdf40"/></g><g><path d="m46 106h75v30h-75z" fill="#ffdf40"/></g><g><path d="m391 106h75v30h-75z" fill="#ffbe40"/></g><g><path d="m69.101 192.248h75.013v30.005h-75.013z" fill="#ffdf40" transform="matrix(.866 -.5 .5 .866 -89.331 81.052)"/></g><g><path d="m367.886 19.748h75.011v30.005h-75.011z" fill="#ffbe40" transform="matrix(.866 -.5 .5 .866 36.921 207.317)"/></g><g><path d="m91.605-2.756h30.005v75.013h-30.005z" fill="#ffdf40" transform="matrix(.5 -.866 .866 .5 23.217 109.708)"/></g><g><path d="m390.389 169.744h30.005v75.011h-30.005z" fill="#ffbe40" transform="matrix(.5 -.866 .866 .5 23.234 454.738)"/></g></g><path d="m328.817 223.759-13.901-81.094 58.901-57.422-81.401-11.836-36.416-73.407v185.468z" fill="#ffbe40"/><path d="m196 241h120v256h-120z" fill="#ff7f40"/><path d="m256 241h60v256h-60z" fill="#f25a3c"/><g><g><path d="m0 482h512v30h-512z" fill="#515866"/></g></g><path d="m256 482h256v30h-256z" fill="#353d4d"/></g></svg>