
<svg id="_x33_0" enable-background="new 0 0 64 64" height="50" viewBox="0 0 64 64" width="50" xmlns="http://www.w3.org/2000/svg"><g><g><path d="m6 46s-4 6.36-4 8.67c0 2.03.82 3.86 2.15 5.18 1.32 1.33 3.15 2.15 5.18 2.15h16.67c-.55 0-1-.45-1-1v-4c0-.55.45-1 1-1h2c-.55 0-1-.45-1-1v-4c0-.55.45-1 1-1h3 4 4l.47.16c.545-1.654 1.561-3.089 2.885-4.16z" fill="#cf9e76"/><path d="m39 40c-.55 0-1-.45-1-1v-6l-4-.22-14-.78-4.04-.22-4.99-.28-2.51-.14c-.54-.03-1.07.01-1.58.11-2.77.57-4.88 3.03-4.88 6 0 1.62.64 3.17 1.79 4.32l.21.21h51.859c.083-.321.141-.652.141-1v-1z" fill="#d3a06c"/><path d="m49.528 46h-46.528v-4h53c-1.226 2.451-3.731 4-6.472 4z" fill="#b27946"/><path d="m38 27v6l-4-.22v-5.78c0-.55.22-1.05.59-1.41.36-.37.86-.59 1.41-.59 1.1 0 2 .9 2 2z" fill="#8cc152"/><path d="m8.9 21.02 2.1 9.98-.03.5-2.51-.14c-.54-.03-1.07.01-1.58.11l-4.85-21.46c-.14-.55.21-1.11.77-1.23l13.2-2.78v4l-9 2z" fill="#a0d468"/><path d="m38 21c-.69 0-1.34.18-1.9.48l-.1-.48v-4.99-10.01h-16v10.01 15.99l-4.04-.22.04-.78v-14-7-4-3c0-.55.45-1 1-1h22c.55 0 1 .45 1 1v18z" fill="#a0d468"/><path d="m36 25c-.55 0-1.05.22-1.41.59-.37.36-.59.86-.59 1.41v-2c0-1.1.45-2.1 1.17-2.83.27-.27.59-.5.93-.69.56-.3 1.21-.48 1.9-.48 2.21 0 4 1.79 4 4v.99 10.01h16v-10.01-.99c0-2.21-1.79-4-4-4h3c2.76 0 5 2.24 5 5v13c0 .55-.45 1-1 1h-5-17c-.55 0-1-.45-1-1v-6-6c0-1.1-.9-2-2-2z" fill="#a0d468"/><path d="m58 25.99v10.01h-16v-10.01c1.82 2.43 4.73 4.01 8 4.01s6.18-1.58 8-4.01z" fill="#b4dd7f"/><path d="m16 17c-5 1-7 4-7 4l-.1.02-1.9-9.02 9-2z" fill="#b4dd7f"/><path d="m36 6v10.01c-1.82-2.43-4.73-4.01-8-4.01s-6.18 1.58-8 4.01v-10.01z" fill="#b4dd7f"/><g fill="#fcd770"><path d="m16 17v14l-.04.78-4.99-.28.03-.5-2.1-9.98.1-.02s2-3 7-4z"/><path d="m36 21 .1.48c-.34.19-.66.42-.93.69-.72.73-1.17 1.73-1.17 2.83v2 5.78l-14-.78v-15.99c1.82-2.43 4.73-4.01 8-4.01s6.18 1.58 8 4.01z"/><path d="m38 21h2 14c2.21 0 4 1.79 4 4v.99c-1.82 2.43-4.73 4.01-8 4.01s-6.18-1.58-8-4.01v-.99c0-2.21-1.79-4-4-4z"/><path d="m48 62h-11v-6h2l.47-.16c1.18 3.58 4.55 6.16 8.53 6.16z"/><path d="m33 56v6h-4v-6h2z"/><path d="m31 50v6h-2-1c-.55 0-1-.45-1-1v-4c0-.55.45-1 1-1z"/><path d="m37 56h-2v-6h4l.47.16c-.31.89-.47 1.85-.47 2.84s.16 1.95.47 2.84l-.47.16z"/></g><path d="m37 56v6h-4v-6h2z" fill="#ffc729"/><path d="m29 56v6h-3c-.55 0-1-.45-1-1v-4c0-.55.45-1 1-1h2z" fill="#ffc729"/><path d="m35 50v6h-2-2v-6z" fill="#ffc729"/><path d="m52.1 44.99c2.91 1.49 4.9 4.52 4.9 8.01 0 4.97-4.03 9-9 9-3.98 0-7.35-2.58-8.53-6.16-.31-.89-.47-1.85-.47-2.84s.16-1.95.47-2.84c1.18-3.58 4.55-6.16 8.53-6.16 1.47 0 2.87.36 4.1.99z" fill="#ffc729"/><circle cx="48" cy="53" fill="#fcd770" r="5"/></g><g><path d="m29 15h-2v2h-2v6h4v2h-4v2h2v2h2v-2h2v-6h-4v-2h4v-2h-2z"/><path d="m57 20h-16v-17c0-1.103-.897-2-2-2h-22c-1.103 0-2 .897-2 2v2.189l-12.402 2.615c-.536.113-1.009.444-1.297.907-.289.465-.374 1.013-.245 1.515l4.641 20.545c-.906.327-1.745.839-2.47 1.526-1.436 1.357-2.227 3.193-2.227 5.169 0 1.75.627 3.403 1.774 4.702-.406.941-.464 1.965-.141 2.857.299.825.906 1.433 1.708 1.777-1.256 2.127-3.341 5.944-3.341 7.865 0 4.595 3.738 8.333 8.333 8.333h16.667 22c5.514 0 10-4.486 10-10 0-3.07-1.393-5.818-3.577-7.654 1.529-.856 2.577-2.473 2.577-4.346h4c1.103 0 2-.897 2-2v-13c0-3.309-2.691-6-6-6zm-14 8.471c1.954 1.611 4.434 2.529 7 2.529s5.046-.918 7-2.529v6.529h-14zm14-3.471v.626c-1.7 2.113-4.288 3.374-7 3.374s-5.3-1.261-7-3.374v-.626c0-1.13-.391-2.162-1.026-3h12.026c1.654 0 3 1.346 3 3zm-18-22v17h-1c-.342 0-.677.035-1 .101v-15.101h-18v25.943l-2-.111v-27.832zm-2 28.943-2-.111v-4.832c0-.551.448-1 1-1s1 .449 1 1zm-4-6.943v2 4.721l-12-.667v-14.68c1.7-2.113 4.288-3.374 7-3.374s5.3 1.261 7 3.374v4.626h.031c-1.225.912-2.031 2.359-2.031 4zm2-11.471c-1.954-1.611-4.434-2.529-7-2.529s-5.046.918-7 2.529v-6.529h14zm-23.073 17.021-1.937-9.2c.467-.573 2.003-2.181 5.01-3.069v12.44zm3.073-14.344c-2.636.671-4.42 1.856-5.502 2.805l-1.316-6.25 6.818-1.514zm-11.99-6.445 11.99-2.528v1.965l-9.183 2.04 4.042 19.197-1.347-.075c-.287-.015-.572-.009-.854.009zm35.192 45.239h-2.202v-4h2.202c-.132.646-.202 1.315-.202 2s.07 1.354.202 2zm-6.202 2v4h-2v-4zm2 0h2v4h-2zm0-2h-2v-4h2zm-4 0h-2v-4h2zm-2 2v4h-2v-4zm10 4v-4h.841c.7 1.595 1.806 2.968 3.185 4zm18-8c0 4.411-3.589 8-8 8s-8-3.589-8-8 3.589-8 8-8 8 3.589 8 8zm-3.727-9.028c-1.298-.616-2.743-.972-4.273-.972-4.091 0-7.612 2.473-9.159 6h-10.841c-1.103 0-2 .897-2 2v4c-1.103 0-2 .897-2 2v4h-14.667c-3.492 0-6.333-2.841-6.333-6.333 0-1.384 2.09-5.274 3.576-7.698l6.424.031v-2h-7.837c-.318-.124-.536-.345-.649-.657-.143-.394-.109-.88.081-1.343h18.405v-2h-18.57c-.918-.957-1.43-2.204-1.43-3.534 0-1.421.568-2.741 1.601-3.717 1.032-.977 2.39-1.475 3.8-1.392l28.599 1.589v5.054c0 1.103.897 2 2 2h16c0 1.561-1.202 2.832-2.727 2.972zm8.727-4.972h-22v-12c0-1.654-1.346-3-3-3-.301 0-.585.058-.859.141.372-1.234 1.505-2.141 2.859-2.141 1.654 0 3 1.346 3 3v12h18v-12c0-1.046-.325-2.016-.877-2.82 1.657.489 2.877 2.007 2.877 3.82z"/><path d="m48 47c-3.309 0-6 2.691-6 6s2.691 6 6 6 6-2.691 6-6-2.691-6-6-6zm0 10c-2.206 0-4-1.794-4-4s1.794-4 4-4 4 1.794 4 4-1.794 4-4 4z"/><path d="m17 45h16v2h-16z"/><path d="m27 41h8v2h-8z"/></g></g></svg>