
<svg height="25" viewBox="0 0 512 512" width="25" xmlns="http://www.w3.org/2000/svg"><path d="m120 45v45h-75c-24.902344 0-45-20.097656-45-45 0-25.011719 20.554688-45 45-45 24.902344 0 75 20.097656 75 45zm0 0" fill="#f6a96c"/><path d="m451 60v422l-180-11.101562-61-3.898438c0 24.898438-50.097656 45-75 45s-45-20.101562-45-45v-422c0-24.902344-20.097656-45-45-45h346c33 0 60 27 60 60zm0 0" fill="#fed2a4"/><path d="m451 60v422l-180-11.101562v-470.898438h120c33 0 60 27 60 60zm0 0" fill="#ffbd86"/><g fill="#f6a96c"><path d="m210 90h121v30h-121zm0 0"/><path d="m150 151h241v30h-241zm0 0"/><path d="m150 211h241v30h-241zm0 0"/><path d="m150 271h241v30h-241zm0 0"/></g><path d="m271 331h120v30h-120zm0 0" fill="#99503d"/><path d="m271 90h60v30h-60zm0 0" fill="#ea9b58"/><path d="m271 151h120v30h-120zm0 0" fill="#ea9b58"/><path d="m271 211h120v30h-120zm0 0" fill="#ea9b58"/><path d="m271 271h120v30h-120zm0 0" fill="#ea9b58"/><path d="m509.597656 452h-332.296875c1.796875 4.800781 2.699219 9.898438 2.699219 15 0 24.898438-20.097656 45-45 45h331c24.902344 0 46-20.101562 46-45 0-5.101562-.902344-10.199219-2.402344-15zm0 0" fill="#f6a96c"/><path d="m512 467c0 24.898438-21.097656 45-46 45h-195v-60h238.597656c1.5 4.800781 2.402344 9.898438 2.402344 15zm0 0" fill="#ea9b58"/></svg>