<svg version="1.1" height="25" width="25" id="Capa_1" xmlns="http://www.w3.org/2000/svg" xmlns:xlink="http://www.w3.org/1999/xlink" x="0px" y="0px"
	 viewBox="0 0 480 480" style="enable-background:new 0 0 480 480;" xml:space="preserve">
<path style="fill:#FFD782;" d="M408,472H104l-32-32V8h304l32,32V472z"/>
<g>
	<path style="fill:#7D8D9C;" d="M344,152H136c-4.418,0-8-3.582-8-8s3.582-8,8-8h208c4.418,0,8,3.582,8,8S348.418,152,344,152z"/>
	<path id="SVGCleanerId_0" style="fill:#7D8D9C;" d="M344,200H136c-4.418,0-8-3.582-8-8s3.582-8,8-8h208c4.418,0,8,3.582,8,8
		S348.418,200,344,200z"/>
	<g>
		<path id="SVGCleanerId_1" style="fill:#7D8D9C;" d="M344,248H136c-4.418,0-8-3.582-8-8s3.582-8,8-8h208c4.418,0,8,3.582,8,8
			S348.418,248,344,248z"/>
	</g>
	<path style="fill:#7D8D9C;" d="M344,296H136c-4.418,0-8-3.582-8-8s3.582-8,8-8h208c4.418,0,8,3.582,8,8S348.418,296,344,296z"/>
	<g>
		<path id="SVGCleanerId_0_1_" style="fill:#7D8D9C;" d="M344,200H136c-4.418,0-8-3.582-8-8s3.582-8,8-8h208c4.418,0,8,3.582,8,8
			S348.418,200,344,200z"/>
	</g>
	<g>
		<path id="SVGCleanerId_1_1_" style="fill:#7D8D9C;" d="M344,248H136c-4.418,0-8-3.582-8-8s3.582-8,8-8h208c4.418,0,8,3.582,8,8
			S348.418,248,344,248z"/>
	</g>
	<path id="SVGCleanerId_2" style="fill:#7D8D9C;" d="M344,296H136c-4.418,0-8-3.582-8-8s3.582-8,8-8h208c4.418,0,8,3.582,8,8
		S348.418,296,344,296z"/>
	<path id="SVGCleanerId_3" style="fill:#7D8D9C;" d="M344,344H136c-4.418,0-8-3.582-8-8s3.582-8,8-8h208c4.418,0,8,3.582,8,8
		S348.418,344,344,344z"/>
	<g>
		<path id="SVGCleanerId_1_2_" style="fill:#7D8D9C;" d="M344,248H136c-4.418,0-8-3.582-8-8s3.582-8,8-8h208c4.418,0,8,3.582,8,8
			S348.418,248,344,248z"/>
	</g>
	<g>
		<path id="SVGCleanerId_2_1_" style="fill:#7D8D9C;" d="M344,296H136c-4.418,0-8-3.582-8-8s3.582-8,8-8h208c4.418,0,8,3.582,8,8
			S348.418,296,344,296z"/>
	</g>
	<g>
		<path id="SVGCleanerId_3_1_" style="fill:#7D8D9C;" d="M344,344H136c-4.418,0-8-3.582-8-8s3.582-8,8-8h208c4.418,0,8,3.582,8,8
			S348.418,344,344,344z"/>
	</g>
	<path style="fill:#7D8D9C;" d="M344,392H136c-4.418,0-8-3.582-8-8s3.582-8,8-8h208c4.418,0,8,3.582,8,8S348.418,392,344,392z"/>
</g>
<path style="fill:#D3843D;" d="M408,112L304,8v104H408z"/>
<circle style="fill:#2D75BB;" cx="240" cy="88" r="24"/>
<path d="M64,8v432c0,2.122,0.844,4.156,2.344,5.656l32,32c1.5,1.5,3.534,2.344,5.656,2.344h304c4.418,0,8-3.582,8-8V40
	c0-2.122-0.844-4.156-2.344-5.656l-32-32C380.156,0.844,378.122,0,376,0H72C67.582,0,64,3.582,64,8z M372.688,16L400,43.312v49.376
	L323.312,16H372.688z M312,27.312L388.688,104H312V27.312z M80,16h216v96c0,4.418,3.582,8,8,8h96v344H107.312L80,436.688L80,16z"/>
<path d="M136,152h208c4.418,0,8-3.582,8-8s-3.582-8-8-8H136c-4.418,0-8,3.582-8,8S131.582,152,136,152z"/>
<path d="M136,200h208c4.418,0,8-3.582,8-8s-3.582-8-8-8H136c-4.418,0-8,3.582-8,8S131.582,200,136,200z"/>
<path d="M136,248h208c4.418,0,8-3.582,8-8s-3.582-8-8-8H136c-4.418,0-8,3.582-8,8S131.582,248,136,248z"/>
<path d="M136,296h208c4.418,0,8-3.582,8-8s-3.582-8-8-8H136c-4.418,0-8,3.582-8,8S131.582,296,136,296z"/>
<path d="M136,344h208c4.418,0,8-3.582,8-8s-3.582-8-8-8H136c-4.418,0-8,3.582-8,8S131.582,344,136,344z"/>
<path d="M136,392h208c4.418,0,8-3.582,8-8s-3.582-8-8-8H136c-4.418,0-8,3.582-8,8S131.582,392,136,392z"/>
<path d="M240,120c17.673,0,32-14.327,32-32s-14.327-32-32-32s-32,14.327-32,32S222.327,120,240,120z M240,72c8.837,0,16,7.163,16,16
	s-7.163,16-16,16c-8.837,0-16-7.163-16-16S231.163,72,240,72z"/>
<g>
</g>
<g>
</g>
<g>
</g>
<g>
</g>
<g>
</g>
<g>
</g>
<g>
</g>
<g>
</g>
<g>
</g>
<g>
</g>
<g>
</g>
<g>
</g>
<g>
</g>
<g>
</g>
<g>
</g>
</svg>