<svg width="36" height="36" viewBox="0 0 20 16" fill="none" xmlns="http://www.w3.org/2000/svg">
<path d="M7.46632 1.83507L4.37708 4.79993H0.833333C0.372917 4.79993 0 5.15791 0 5.59989V10.3997C0 10.8413 0.372917 11.1996 0.833333 11.1996H4.37708L7.46632 14.1645C7.98819 14.6655 8.88889 14.3135 8.88889 13.5988V2.40071C8.88889 1.68541 7.9875 1.33476 7.46632 1.83507ZM15.5677 0.132482C15.1799 -0.11184 14.6587 -0.00884507 14.4042 0.364137C14.1493 0.736453 14.2576 1.23676 14.6455 1.48108C16.9465 2.93068 18.3198 5.36757 18.3198 8.00011C18.3198 10.6327 16.9465 13.0695 14.6455 14.5191C14.2576 14.7631 14.1493 15.2638 14.4042 15.6358C14.6486 15.9927 15.1656 16.1211 15.5677 15.8674C18.3427 14.1188 20 11.1773 20 7.99978C20 4.82226 18.3427 1.88107 15.5677 0.132482ZM16.6667 7.99978C16.6667 5.88221 15.5535 3.9353 13.6885 2.79202C13.3 2.55403 12.7847 2.6647 12.5385 3.04068C12.2924 3.41666 12.4073 3.9143 12.7958 4.15263C14.176 4.99892 15 6.43685 15 7.99978C15 9.56271 14.176 11.0006 12.7958 11.8469C12.4073 12.0849 12.2924 12.5826 12.5385 12.9589C12.7646 13.3042 13.2719 13.4635 13.6885 13.2075C15.5535 12.0643 16.6667 10.1177 16.6667 7.99978ZM11.7441 5.43757C11.342 5.22658 10.8347 5.36557 10.6118 5.75255C10.3899 6.13953 10.5368 6.62584 10.9399 6.8395C11.3882 7.07582 11.6667 7.5208 11.6667 7.99978C11.6667 8.47909 11.3882 8.92374 10.9403 9.16006C10.5372 9.37371 10.3903 9.86002 10.6122 10.247C10.8354 10.6357 11.3431 10.7736 11.7444 10.562C12.7247 10.0437 13.3337 9.06206 13.3337 7.99945C13.3337 6.93683 12.7247 5.95554 11.7441 5.43757Z" fill="#2d2f31"></path>
</svg>
