<svg width="36" height="36" viewBox="0 0 20 16" fill="none" xmlns="http://www.w3.org/2000/svg">
<path opacity="0.5" d="M19.8068 14.3156L17.6506 12.649C18.5131 11.275 19 9.67747 19 7.99997C19 5.02091 17.5084 2.2631 15.0109 0.624035C14.6618 0.394972 14.1928 0.491535 13.9637 0.841222C13.7343 1.19028 13.8318 1.65935 14.1809 1.88841C16.2518 3.24747 17.4878 5.53216 17.4878 8.00028C17.4878 9.33716 17.114 10.6125 16.4497 11.7209L15.2584 10.8003C15.734 9.95872 16 9.00184 16 7.99997C16 6.02841 14.9981 4.18466 13.3197 3.11997C12.97 2.89841 12.5062 3.00122 12.2847 3.35153C12.0631 3.70153 12.1665 4.16497 12.5162 4.38685C13.7584 5.17466 14.5 6.54497 14.5 7.99997C14.5 8.66278 14.3428 9.29903 14.0562 9.87122L12.82 8.91559C12.9256 8.62341 13 8.31966 13 7.99997C13 7.00372 12.4522 6.08341 11.5697 5.59747C11.2078 5.39966 10.7512 5.52997 10.5506 5.89278C10.3509 6.2556 10.4831 6.71153 10.8459 6.91184C11.2134 7.11372 11.4434 7.47997 11.4834 7.88247L8.99997 5.9631V2.7506C8.99997 2.07997 8.18872 1.75122 7.71966 2.22028L6.16622 3.77341L1.42091 0.105285C1.20278 -0.0640902 0.88841 -0.0250277 0.719035 0.193097L0.105285 0.982784C-0.0640902 1.2006 -0.0250277 1.51466 0.193097 1.68435L18.5793 15.8947C18.7975 16.0643 19.1115 16.025 19.2812 15.8068L19.895 15.0172C20.064 14.7993 20.025 14.4853 19.8068 14.3156ZM0.999972 5.74997V10.25C0.999972 10.664 1.3356 11 1.74997 11H4.93935L7.71966 13.7797C8.18934 14.2493 8.99997 13.9193 8.99997 13.2493V11.0187L1.36747 5.11997C1.15185 5.25153 0.999972 5.47872 0.999972 5.74997Z" fill="#424648"/>
</svg>
