<svg xmlns="http://www.w3.org/2000/svg" xmlns:xlink="http://www.w3.org/1999/xlink" width="91.643" height="128.693" viewBox="0 0 91.643 128.693">
  <defs>
    <filter id="filter1" x="0" y="0" width="86.108" height="128.693" filterUnits="userSpaceOnUse">
      <feOffset dy="3" input="SourceAlpha"/>
      <feGaussianBlur stdDeviation="3" result="blur"/>
      <feFlood flood-opacity="0.161"/>
      <feComposite operator="in" in2="blur"/>
      <feComposite in="SourceGraphic"/>
    </filter>
  </defs>
  <g id="spin" transform="translate(-85.895 -64.89)">
    <g transform="matrix(1, 0, 0, 1, 85.89, 64.89)" filter="url(#filter1)">
      <path id="guten1" d="M98.154,93.33c.705,6.226-1.04,9.9,8.3,25.315s8.915,27.91,8.859,30.995,4.126,24.216,4.812,25.6.954,1.383,2.08,5.623,5.6-11.18,11.872-21.973,1.1-27.814,5.841-35.525,7.371-14.59,10.522-21.529a55.274,55.274,0,0,1,7.041-11.565s11.576-18.609,1.205-18.889-36.481.386-36.481.386-28.9-2.934-27.242,1.927" transform="translate(-85.89 -64.89)" fill="rgb(176 238 241)"/>
    </g>
    <path id="guten2" d="M123.812,193.018s7-15.929,8.63-18.912,5.742-8.365,5.121-21.324,4.718-21.167,8.019-27.824c2.192-4.42,5.933-15.427,11.824-22.455,2.155-3.563,4.3-6.869,5.288-12.091-.4-14.692-38.8,15.789-40.352,20.477s4.075,20.958,5.027,24.493,3.618,7.361,1.285,15.741S118.43,200.3,123.812,193.018Z" transform="translate(0 -12.234)" fill="rgb(98 169 185)"/>
    <path id="guten3" d="M1.8,92.1s6.847-13.8,8.446-16.38,5.619-7.245,5.011-18.469,4.617-18.333,7.847-24.1c2.145-3.829,5.806-13.362,11.571-19.449,1.734-3.572,21.3-16.8,21.669-19.469C49.657-19.013,1.883,16.91.365,20.97S4.353,39.123,5.284,42.184,8.825,48.56,6.542,55.818-3.463,98.407,1.8,92.1Z" transform="translate(107.358 90.175) rotate(-9)" fill="rgb(155 228 243)"/>
    <path id="guten4" d="M117.879,73.626c-13.107,5.985-7.214,17.6-7.53,20.025s-8.714,14.975-7.238,19.189-5.993-10.953-5.968-14.909A89.375,89.375,0,0,0,95.9,86.225c-.058-.116-2.1-13.523-2.243-14.483s-1.623-3.373,16.11-2.8c4.167.134,8.5.431,11.02.759,6.531-.172,4.108-.148,4.891-.141,3.59-.023,14.761-.457,23.269-.354,8.132.025,9.686-.2,10.955.782a85.67,85.67,0,0,1-9.495.993c-3.838.077-4.533-.655-5.857-.686s-.657,1.436-2.174,1.436-2.1-1.637-3.895-1.436-1.571,2.8-3.258,2.9-1.144-2.813-3.49-2.514C127.851,71.173,120.962,72.218,117.879,73.626Z" transform="translate(1.411 2.107)" fill="rgb(240 244 245)" opacity="0.37"/>
    <path id="guten5" d="M122.553,180.724c0-.784.49-11.177,1.274-17.648s1.373-7.942,2.353-15.295,2.354-8.628.785-14.118S125.4,132,125,124.545s-5-3.333,0-13.04,5.883-10.687,8.726-15.883,1.667-6.177,8.333-10.785,12.157-7.549,12.255-8.432-7.059,1.471-9.02,3.235S131.376,90.328,130.592,91.5a49.614,49.614,0,0,1-6.373,7.844,109.705,109.705,0,0,0-8.138,7.844c-.882,1.177-3.138,6.177-2.059,8.138s5.393,6.667,6.373,8.138a40.057,40.057,0,0,1,3.431,9.118c.393,2.157,2.647,4.608,1.177,8.824a49.015,49.015,0,0,0-1.863,9.216c-.2.686-1.667,14.51-1.667,16.177s.294,8.236,0,9.706S122.553,180.724,122.553,180.724Z" fill="rgb(240 244 245)" opacity="0.55"/>
    <path id="guten6" d="M122.553,180.724c0-.784.49-11.177,1.274-17.648s1.373-7.942,2.353-15.295,2.354-8.628.785-14.118S125.4,132,125,124.545s-5-3.333,0-13.04,5.883-10.687,8.726-15.883,1.667-6.177,8.333-10.785,12.157-7.549,12.255-8.432-7.059,1.471-9.02,3.235S131.376,90.328,130.592,91.5a49.614,49.614,0,0,1-6.373,7.844,109.705,109.705,0,0,0-8.138,7.844c-.882,1.177-3.138,6.177-2.059,8.138s5.393,6.667,6.373,8.138a40.057,40.057,0,0,1,3.431,9.118c.393,2.157,2.647,4.608,1.177,8.824a49.015,49.015,0,0,0-1.863,9.216c-.2.686-1.667,14.51-1.667,16.177s.294,8.236,0,9.706S122.553,180.724,122.553,180.724Z" transform="translate(2)" fill="rgb(240 244 245)" opacity="0.13"/>
  </g>
</svg>