
<svg id="Fill_out_line" height="35" viewBox="0 0 512 512" width="35" xmlns="http://www.w3.org/2000/svg" data-name="Fill out line"><path d="m264 304h224v184h-224z" fill="#448703"/><path d="m459.3042 424a63.98738 63.98738 0 0 1 -59.3042 40h-136v24h224v-64z" fill="#276b02"/><path d="m264 304h224v120h-224z" fill="#95cb37"/><path d="m352 424h48v64h-48z" fill="#f98500"/><path d="m352 304h48v120h-48z" fill="#fca713"/><path d="m312 424h-48v-48a48.03806 48.03806 0 0 1 48 48z" fill="#69a709"/><path d="m264 304h48a48.03806 48.03806 0 0 1 -48 48z" fill="#69a709"/><path d="m488 304v48a48.03806 48.03806 0 0 1 -48-48z" fill="#69a709"/><path d="m488 376v48h-48a48.03806 48.03806 0 0 1 48-48z" fill="#69a709"/><path d="m488 112v-88h-88v32h32l-136 136-88-88-168 168 24 24 144-144 88 88 160-160v32z" fill="#3086cd"/><path d="m216 424h88v32h-88z" fill="#fdb62f" transform="matrix(-1 0 0 -1 520 880)"/><path d="m128 424h88v32h-88z" fill="#f18d00" transform="matrix(-1 0 0 -1 344 880)"/><path d="m200 456h88v32h-88z" fill="#f18d00" transform="matrix(-1 0 0 -1 488 944)"/><path d="m112 456h88v32h-88z" fill="#fdb62f" transform="matrix(-1 0 0 -1 312 944)"/><path d="m200 392h88v32h-88z" fill="#f18d00" transform="matrix(-1 0 0 -1 488 816)"/><path d="m112 392h88v32h-88z" fill="#fdb62f" transform="matrix(-1 0 0 -1 312 816)"/><path d="m40 424h88v32h-88z" fill="#fdb62f" transform="matrix(-1 0 0 -1 168 880)"/><path d="m24 456h88v32h-88z" fill="#f18d00" transform="matrix(-1 0 0 -1 136 944)"/><path d="m24 392h88v32h-88z" fill="#f18d00" transform="matrix(-1 0 0 -1 136 816)"/><path d="m40 360h88v32h-88z" fill="#fdb62f" transform="matrix(-1 0 0 -1 168 752)"/><path d="m112 328h88v32h-88z" fill="#fdb62f" transform="matrix(-1 0 0 -1 312 688)"/><path d="m136 296h88v32h-88z" fill="#f18d00" transform="matrix(-1 0 0 -1 360 624)"/><path d="m128 360h88v32h-88z" fill="#f18d00" transform="matrix(-1 0 0 -1 344 752)"/><path d="m216 360h88v32h-88z" fill="#fdb62f" transform="matrix(-1 0 0 -1 520 752)"/><path d="m88 456h24v32h-24z" fill="#f08000"/><path d="m88 392h24v32h-24z" fill="#f08000"/><g fill="#fca713"><path d="m104 424h24v32h-24z"/><path d="m104 360h24v32h-24z"/><path d="m176 456h24v32h-24z"/><path d="m176 392h24v32h-24z"/></g><path d="m192 424h24v32h-24z" fill="#f08000"/><path d="m192 360h24v32h-24z" fill="#f08000"/><path d="m176 328h24v32h-24z" fill="#fca713"/><path d="m280 424h24v32h-24z" fill="#fca713"/><path d="m280 360h24v32h-24z" fill="#fca713"/><path d="m200 296h24v32h-24z" fill="#f08000"/><path d="m264 456h24v32h-24z" fill="#f08000"/><path d="m264 392h24v32h-24z" fill="#f08000"/><path d="m24 496h264a8.00008 8.00008 0 0 0 8-8v-24h8a8.00008 8.00008 0 0 0 8-8v-32a8.00008 8.00008 0 0 0 -8-8h-8v-16h8a8.00008 8.00008 0 0 0 8-8v-32a8.00008 8.00008 0 0 0 -8-8h-96v-16h16a8.00008 8.00008 0 0 0 8-8v-32a8.00008 8.00008 0 0 0 -8-8h-88a8.00008 8.00008 0 0 0 -8 8v24h-16a8.00008 8.00008 0 0 0 -8 8v24h-64a8.00008 8.00008 0 0 0 -8 8v24h-8a8.00008 8.00008 0 0 0 -8 8v32a8.00008 8.00008 0 0 0 8 8h8v16h-8a8.00008 8.00008 0 0 0 -8 8v32a8.00008 8.00008 0 0 0 8 8zm24-64h72v16h-72zm160-64v16h-72v-16zm-16 32v16h-72v-16zm-56 48v-16h72v16zm56 16v16h-72v-16zm16 16v-16h72v16zm88-32h-72v-16h72zm-16-32h-72v-16h72zm16-32h-72v-16h72zm-152-80h72v16h-72zm-24 32h72v16h-72zm-72 32h72v16h-72zm-16 32h72v16h-72zm0 64h72v16h-72z"/><path d="m488 296h-224a8.00008 8.00008 0 0 0 -8 8v32h16v-24h31.18213a39.92117 39.92117 0 0 1 -9.38525 18.66357l11.916 10.67676a55.88747 55.88747 0 0 0 13.70753-29.34033h24.57959v104h-16v16h16v48h-32v16h176a8.00008 8.00008 0 0 0 8-8v-184a8.00008 8.00008 0 0 0 -8-8zm-8 47.19507a40.12034 40.12034 0 0 1 -31.19507-31.19507h31.19507zm-47.41943 72.80493h-24.58057v-104h24.58057a56.11348 56.11348 0 0 0 47.41943 47.41943v9.16114a56.11348 56.11348 0 0 0 -47.41943 47.41943zm47.41943-31.19507v31.19507h-31.19507a40.12034 40.12034 0 0 1 31.19507-31.19507zm-120-72.80493h32v104h-32zm0 120h32v48h-32zm48 48v-48h72v48z"/><path d="m488 16h-88a8.00008 8.00008 0 0 0 -8 8v32a8.00008 8.00008 0 0 0 8 8h12.68652l-116.68652 116.68652-82.34277-82.34326a8.00122 8.00122 0 0 0 -11.31446 0l-168 168a8 8 0 0 0 0 11.31348l24 24a8.00063 8.00063 0 0 0 11.31446 0l138.34277-138.34326 82.34277 82.34326a8.00122 8.00122 0 0 0 11.31446 0l146.34277-146.34326v12.68652a8.00008 8.00008 0 0 0 8 8h32a8.00008 8.00008 0 0 0 8-8v-88a8.00008 8.00008 0 0 0 -8-8zm-8 88h-16v-24a8.0001 8.0001 0 0 0 -13.65723-5.65674l-154.34277 154.34326-82.34277-82.34326a8.00122 8.00122 0 0 0 -11.31446 0l-138.34277 138.34326-12.68652-12.68652 156.68652-156.68652 82.34277 82.34326a8.00122 8.00122 0 0 0 11.31446 0l136-136a8.00038 8.00038 0 0 0 -5.65723-13.65674h-24v-16h72z"/></svg>