
<svg height="35" viewBox="0 0 58 58" width="35" xmlns="http://www.w3.org/2000/svg"><g id="Page-1" fill="none" fill-rule="evenodd"><g id="024---Red-Carpet" fill-rule="nonzero"><path id="Shape" d="m11.751 10c-.2272807-.00017725-.4477211-.07777225-.625-.22l-3.144-2.52c-.41871968-.34884572-.48100061-.96873909-.14004664-1.39390951.34095398-.42517043.95957419-.49903347 1.39104664-.16609049l3.144 2.52c.3310896.26562698.4584082.71133426.3175821 1.1117665-.1408262.40043224-.5191083.6683271-.9435821.6682335z" fill="#bdc3c7"/><path id="Shape" d="m46.249 10c-.4244738.0000936-.8027559-.26780126-.9435821-.6682335-.1408261-.40043224-.0135075-.84613952.3175821-1.1117665l3.144-2.52c.4314725-.33294298 1.0500927-.25907994 1.3910466.16609049.340954.42517042.2786731 1.04506379-.1400466 1.39390951l-3.144 2.52c-.1772789.14222775-.3977193.21982275-.625.22z" fill="#bdc3c7"/><path id="Shape" d="m46.3 11.52c-5.12 4.35-16.07 4.48-17.3 4.48s-12.18-.13-17.3-4.48c-.5430437-.4644453-.7970582-1.1833208-.6663586-1.88583303.1306995-.70251228.6262567-1.28193302 1.3-1.52000002.6737432-.238067 1.4233149-.09861223 1.9663586.36583305 3.39 2.88 11.76 3.52 14.7 3.52s11.31-.64 14.7-3.52c.8394728-.71797017 2.1020298-.61947282 2.82.22s.6194728 2.1020298-.22 2.82z" fill="#e64c3c"/><path id="Shape" d="m54 5.46v31.54h-4v-31.54c1.2361501.71993788 2.7638499.71993788 4 0z" fill="#f29c1f"/><path id="Shape" d="m8 5.46v31.54h-4v-31.54c1.23615011.71993788 2.76384989.71993788 4 0z" fill="#f29c1f"/><path id="Shape" d="m51 58h-44c-.36067678-.0015008-.69259843-.1971113-.86863862-.5119126s-.16891805-.7000087.01863862-1.0080874l14.77-24c.178697-.2988684.5017857-.4813185.85-.48h14.46c.3482143-.0013185.671303.1811316.85.48l14.77 24c.1875567.3080787.1946788.6932861.0186386 1.0080874s-.5079618.5104118-.8686386.5119126z" fill="#e64c3c"/><path id="Shape" d="m21.21 53c0 .5522847-.4477153 1-1 1h-6c-.341173.000657-.6588438-.1737063-.841486-.4618751s-.2047319-.6498721-.058514-.9581249l9.59-20.58h2.21l-9.33 20h4.43c.5522847 0 1 .4477153 1 1z" fill="#f29c1f"/><path id="Shape" d="m44.63 53.54c-.1815952.2882954-.4992862.462269-.84.46h-18.58c-.5522847 0-1-.4477153-1-1s.4477153-1 1-1h17.01l-9.32-20h2.2l9.59 20.58c.1453195.3092363.1226928.6712645-.06.96z" fill="#f29c1f"/><path id="Shape" d="m12 39v1c0 .5522847-.4477153 1-1 1h-10c-.55228475 0-1-.4477153-1-1v-1c0-2.209139 1.790861-4 4-4h4c2.209139 0 4 1.790861 4 4z" fill="#95a5a5"/><path id="Shape" d="m10 4c0 2.209139-1.790861 4-4 4s-4-1.790861-4-4 1.790861-4 4-4c1.06249786-.00535274 2.08302652.41435553 2.83433549 1.16566451.75130898.75130897 1.17101721 1.77183763 1.16566451 2.83433549z" fill="#f3d55b"/><path id="Shape" d="m58 39v1c0 .5522847-.4477153 1-1 1h-10c-.5522847 0-1-.4477153-1-1v-1c0-2.209139 1.790861-4 4-4h4c2.209139 0 4 1.790861 4 4z" fill="#95a5a5"/><path id="Shape" d="m56 4c0 2.209139-1.790861 4-4 4s-4-1.790861-4-4 1.790861-4 4-4c1.0624979-.00535274 2.0830265.41435553 2.8343355 1.16566451.751309.75130897 1.1710172 1.77183763 1.1656645 2.83433549z" fill="#f3d55b"/></g></g></svg>